<svg width="30" height="30" viewBox="0 0 30 30" fill="none" xmlns="http://www.w3.org/2000/svg">
<g clip-path="url(#clip0)">
<path d="M24.4375 18.2C24.4191 18.3524 24.3452 18.4928 24.2299 18.5942C24.1146 18.6957 23.966 18.7511 23.8125 18.75H21.25C21.0842 18.75 20.9253 18.8158 20.8081 18.9331C20.6908 19.0503 20.625 19.2092 20.625 19.375V29.375C20.625 29.5408 20.6908 29.6997 20.8081 29.8169C20.9253 29.9342 21.0842 30 21.25 30H28.75C29.0815 30 29.3995 29.8683 29.6339 29.6339C29.8683 29.3995 30 29.0815 30 28.75V1.25C30 0.918479 29.8683 0.600537 29.6339 0.366117C29.3995 0.131696 29.0815 0 28.75 0L1.25 0C0.918479 0 0.600537 0.131696 0.366117 0.366117C0.131696 0.600537 0 0.918479 0 1.25L0 28.75C0 29.0815 0.131696 29.3995 0.366117 29.6339C0.600537 29.8683 0.918479 30 1.25 30H15C15.1658 30 15.3247 29.9342 15.4419 29.8169C15.5592 29.6997 15.625 29.5408 15.625 29.375V19.375C15.625 19.2092 15.5592 19.0503 15.4419 18.9331C15.3247 18.8158 15.1658 18.75 15 18.75H12.5C12.3342 18.75 12.1753 18.6842 12.0581 18.5669C11.9408 18.4497 11.875 18.2908 11.875 18.125V14.375C11.875 14.2092 11.9408 14.0503 12.0581 13.9331C12.1753 13.8158 12.3342 13.75 12.5 13.75H15C15.1658 13.75 15.3247 13.6842 15.4419 13.5669C15.5592 13.4497 15.625 13.2908 15.625 13.125V11.4875C15.625 9.60115 16.3744 7.79206 17.7082 6.4582C19.0421 5.12435 20.8511 4.375 22.7375 4.375H24.375C24.5408 4.375 24.6997 4.44085 24.8169 4.55806C24.9342 4.67527 25 4.83424 25 5V8.75C25 8.91576 24.9342 9.07473 24.8169 9.19194C24.6997 9.30915 24.5408 9.375 24.375 9.375H22.7375C22.1772 9.375 21.6399 9.59757 21.2437 9.99374C20.8476 10.3899 20.625 10.9272 20.625 11.4875V13.125C20.625 13.2908 20.6908 13.4497 20.8081 13.5669C20.9253 13.6842 21.0842 13.75 21.25 13.75H24.2875C24.3763 13.7494 24.4642 13.7676 24.5454 13.8036C24.6265 13.8396 24.6991 13.8925 24.7582 13.9587C24.8174 14.025 24.8617 14.103 24.8883 14.1877C24.9149 14.2724 24.9232 14.3619 24.9125 14.45L24.4375 18.2Z" fill="#444444"/>
</g>
<defs>
<clipPath id="clip0">
<rect width="30" height="30" fill="white"/>
</clipPath>
</defs>
</svg>
