<svg width="30" height="30" viewBox="0 0 30 30" fill="none" xmlns="http://www.w3.org/2000/svg">
<path d="M21.875 0H8.125C5.97113 0.00330602 3.90643 0.860392 2.38341 2.38341C0.860392 3.90643 0.00330602 5.97113 0 8.125L0 21.875C0.00330602 24.0289 0.860392 26.0936 2.38341 27.6166C3.90643 29.1396 5.97113 29.9967 8.125 30H21.875C24.0289 29.9967 26.0936 29.1396 27.6166 27.6166C29.1396 26.0936 29.9967 24.0289 30 21.875V8.125C29.9967 5.97113 29.1396 3.90643 27.6166 2.38341C26.0936 0.860392 24.0289 0.00330602 21.875 0V0ZM15 21.875C13.6403 21.875 12.311 21.4718 11.1805 20.7164C10.0499 19.9609 9.16868 18.8872 8.64833 17.6309C8.12798 16.3747 7.99183 14.9924 8.2571 13.6588C8.52237 12.3251 9.17715 11.1001 10.1386 10.1386C11.1001 9.17715 12.3251 8.52237 13.6588 8.2571C14.9924 7.99183 16.3747 8.12798 17.6309 8.64833C18.8872 9.16868 19.9609 10.0499 20.7164 11.1805C21.4718 12.311 21.875 13.6403 21.875 15C21.875 16.8234 21.1507 18.572 19.8614 19.8614C18.572 21.1507 16.8234 21.875 15 21.875ZM23.125 8.125C22.7542 8.125 22.3916 8.01503 22.0833 7.80901C21.775 7.60298 21.5346 7.31014 21.3927 6.96753C21.2508 6.62492 21.2137 6.24792 21.286 5.88421C21.3584 5.52049 21.537 5.1864 21.7992 4.92417C22.0614 4.66195 22.3955 4.48338 22.7592 4.41103C23.1229 4.33868 23.4999 4.37581 23.8425 4.51773C24.1851 4.65964 24.478 4.89996 24.684 5.20831C24.89 5.51665 25 5.87916 25 6.25C25 6.74728 24.8025 7.22419 24.4508 7.57583C24.0992 7.92746 23.6223 8.125 23.125 8.125Z" fill="#444444"/>
</svg>
